<svg width="444" height="89" viewBox="0 0 444 89" fill="none" xmlns="http://www.w3.org/2000/svg">
<g clip-path="url(#clip0_83_695)">
<path d="M185.03 39.3899C183.13 38.4099 180.43 37.9099 176.94 37.9099C173.45 37.9099 170.74 38.3999 168.85 39.3899C166.95 40.3799 165.71 41.8999 165.12 43.9699H188.77C188.18 41.8999 186.93 40.3699 185.04 39.3899H185.03Z" fill="black"/>
<path d="M0 0V88.47H443.46V0H0ZM85.73 69.47H66.96V43.74L52.55 69.47H32.22L9.75 29.48H31.18L42.19 51.73H42.63L53.57 29.48H85.72V69.47H85.73ZM85.88 24.98H66.81V15.66H85.88V24.97V24.98ZM208.5 53.51H164.82C165.16 56.07 166.31 57.97 168.26 59.2C170.21 60.43 173.15 61.05 177.09 61.05C180.64 61.05 183.18 60.64 184.7 59.83C186.23 59.02 187.21 58.12 187.66 57.13H208.13C207.74 61.37 205.31 64.77 200.85 67.33C196.39 69.89 188.47 71.17 177.09 71.17C165.71 71.17 157.92 69.33 152.85 65.66C151.37 64.59 150.11 63.37 149.06 62.01C148.13 63.4 147.04 64.65 145.72 65.74C141.31 69.36 134.92 71.17 126.54 71.17C122.6 71.17 119.2 70.66 116.34 69.65C113.48 68.64 110.94 67.13 108.73 65.11H108.29V69.47H89.89V15.96H108.66V34H109.1C111.27 32.18 113.74 30.8 116.53 29.86C119.31 28.92 122.65 28.46 126.54 28.46C134.92 28.46 141.31 30.27 145.72 33.89C146.93 34.88 147.96 36.02 148.84 37.27C149.92 35.79 151.25 34.48 152.81 33.33C157.86 29.63 165.9 27.79 176.94 27.79C187.98 27.79 195.9 29.64 201 33.33C206.1 37.03 208.65 42.42 208.65 49.52C208.65 50.7 208.6 52.03 208.5 53.51ZM215.52 83.47V5H438.47V83.47H215.52Z" fill="black"/>
<path d="M129.93 43.01C128.01 41.48 124.93 40.72 120.69 40.72C116.45 40.72 113.29 41.52 111.19 43.12C109.09 44.72 108.05 46.95 108.05 49.81C108.05 52.67 109.1 54.9 111.19 56.5C113.28 58.1 116.45 58.9 120.69 58.9C124.93 58.9 128.01 58.14 129.93 56.61C131.85 55.08 132.81 52.82 132.81 49.81C132.81 46.8 131.85 44.54 129.93 43.01Z" fill="black"/>
<path d="M238.19 16.55C234.52 18.42 232.68 21.85 232.68 26.82V29.48H224.84V39.83H232.68V69.47H251.45V39.83H263.94V29.48H251.45L251.38 28.44C251.38 26.96 251.98 25.94 253.19 25.37C254.4 24.8 256.53 24.52 259.58 24.52C260.56 24.52 262.31 24.59 264.83 24.74V14.4C261.43 13.96 258.13 13.73 254.93 13.73C247.44 13.73 241.86 14.67 238.19 16.54V16.55Z" fill="black"/>
<path d="M406.9 51.5099H406.46L397.96 29.48H379.7L371.57 51.65H371.13L362.7 29.48H342.08L343.98 33.7299C343.79 33.5799 343.61 33.43 343.41 33.29C338.38 29.62 330.38 27.78 319.39 27.78C308.4 27.78 300.39 29.62 295.37 33.29C291.56 36.07 289.2 39.8599 288.27 44.6399V15.95H269.5V69.4599H288.27V54.3499C289.19 59.0999 291.56 62.87 295.37 65.65C300.4 69.32 308.4 71.16 319.39 71.16C330.38 71.16 338.38 69.33 343.41 65.65C348.44 61.98 350.95 56.6 350.95 49.5C350.95 49.43 350.95 49.36 350.95 49.29L359.97 69.4599H380.59L388.79 46.99H389.23L397.51 69.4599H417.69L435.35 29.47H414.88L406.9 51.49V51.5099ZM319.39 58.9C311.36 58.9 307.34 55.7699 307.34 49.5099C307.34 43.2499 311.36 40.0499 319.39 40.0499C327.42 40.0499 331.44 43.1999 331.44 49.5099C331.44 55.8199 327.42 58.9 319.39 58.9Z" fill="black"/>
</g>
<defs>
<clipPath id="clip0_83_695">
<rect width="443.46" height="88.47" fill="black"/>
</clipPath>
</defs>
</svg>
